<svg width="188" height="188" viewBox="0 0 188 188" fill="none" xmlns="http://www.w3.org/2000/svg">
<g clip-path="url(#clip0_343_52)">
<path d="M0.367213 0.367213C0.483458 0.250803 0.621511 0.158453 0.773478 0.0954427C0.925444 0.0324328 1.08834 0 1.25285 0C1.41736 0 1.58026 0.0324328 1.73223 0.0954427C1.88419 0.158453 2.02225 0.250803 2.13849 0.367213L6.68366 4.91071L11.2288 0.367213C11.3451 0.25091 11.4832 0.158652 11.6352 0.0957091C11.7871 0.032766 11.95 0.00036972 12.1145 0.000369716C12.279 0.000369713 12.4418 0.032766 12.5937 0.0957091C12.7457 0.158652 12.8838 0.25091 13.0001 0.367213C13.1164 0.483517 13.2086 0.62159 13.2716 0.773548C13.3345 0.925506 13.367 1.08837 13.367 1.25285C13.367 1.41733 13.3345 1.5802 13.2716 1.73215C13.2086 1.88412 13.1164 2.02219 13.0001 2.13849L8.4566 6.68366L13.0001 11.2288C13.235 11.4637 13.367 11.7822 13.367 12.1145C13.367 12.4466 13.235 12.7652 13.0001 13.0001C12.7652 13.235 12.4466 13.367 12.1145 13.367C11.7822 13.367 11.4637 13.235 11.2288 13.0001L6.68366 8.4566L2.13849 13.0001C1.90361 13.235 1.58503 13.367 1.25285 13.367C0.920673 13.367 0.602099 13.235 0.367213 13.0001C0.132328 12.7652 0.000369716 12.4466 0.000369716 12.1145C0.000369716 11.7822 0.132328 11.4637 0.367213 11.2288L4.91071 6.68366L0.367213 2.13849C0.250803 2.02225 0.158453 1.88419 0.0954427 1.73223C0.0324328 1.58026 0 1.41736 0 1.25285C0 1.08834 0.0324328 0.925444 0.0954427 0.773478C0.158453 0.621511 0.250803 0.483458 0.367213 0.367213Z" fill="#B3B3B3"/>
<path d="M35.2937 0.367213C35.41 0.250803 35.5481 0.158453 35.7 0.0954427C35.852 0.0324328 36.0148 0 36.1793 0C36.3438 0 36.5067 0.0324328 36.6587 0.0954427C36.8107 0.158453 36.9488 0.250803 37.065 0.367213L41.6102 4.91071L46.1553 0.367213C46.2716 0.25091 46.4097 0.158652 46.5617 0.0957091C46.7136 0.032766 46.8765 0.00036972 47.041 0.000369716C47.2055 0.000369713 47.3684 0.032766 47.5202 0.0957091C47.6722 0.158652 47.8103 0.25091 47.9266 0.367213C48.043 0.483517 48.1351 0.62159 48.1981 0.773548C48.261 0.925506 48.2935 1.08837 48.2935 1.25285C48.2935 1.41733 48.261 1.5802 48.1981 1.73215C48.1351 1.88412 48.043 2.02219 47.9266 2.13849L43.3832 6.68366L47.9266 11.2288C48.1615 11.4637 48.2935 11.7822 48.2935 12.1145C48.2935 12.4466 48.1615 12.7652 47.9266 13.0001C47.6918 13.235 47.3731 13.367 47.041 13.367C46.7087 13.367 46.3902 13.235 46.1553 13.0001L41.6102 8.4566L37.065 13.0001C36.8301 13.235 36.5116 13.367 36.1793 13.367C35.8472 13.367 35.5286 13.235 35.2937 13.0001C35.0589 12.7652 34.9268 12.4466 34.9268 12.1145C34.9268 11.7822 35.0589 11.4637 35.2937 11.2288L39.8373 6.68366L35.2937 2.13849C35.1774 2.02225 35.085 1.88419 35.0219 1.73223C34.959 1.58026 34.9265 1.41736 34.9265 1.25285C34.9265 1.08834 34.959 0.925444 35.0219 0.773478C35.085 0.621511 35.1774 0.483458 35.2937 0.367213Z" fill="#B3B3B3"/>
<path d="M70.2204 0.367213C70.3366 0.250803 70.4747 0.158453 70.6267 0.0954427C70.7786 0.0324328 70.9416 0 71.1061 0C71.2706 0 71.4335 0.0324328 71.5855 0.0954427C71.7374 0.158453 71.8755 0.250803 71.9917 0.367213L76.5369 4.91071L81.0821 0.367213C81.1984 0.25091 81.3365 0.158652 81.4884 0.0957091C81.6404 0.032766 81.8032 0.00036972 81.9676 0.000369716C82.1321 0.000369713 82.295 0.032766 82.447 0.0957091C82.5989 0.158652 82.737 0.25091 82.8533 0.367213C82.9696 0.483517 83.0619 0.62159 83.1248 0.773548C83.1878 0.925506 83.2201 1.08837 83.2201 1.25285C83.2201 1.41733 83.1878 1.5802 83.1248 1.73215C83.0619 1.88412 82.9696 2.02219 82.8533 2.13849L78.3098 6.68366L82.8533 11.2288C83.0882 11.4637 83.2201 11.7822 83.2201 12.1145C83.2201 12.4466 83.0882 12.7652 82.8533 13.0001C82.6184 13.235 82.2999 13.367 81.9676 13.367C81.6355 13.367 81.317 13.235 81.0821 13.0001L76.5369 8.4566L71.9917 13.0001C71.7568 13.235 71.4382 13.367 71.1061 13.367C70.7739 13.367 70.4553 13.235 70.2204 13.0001C69.9855 12.7652 69.8536 12.4466 69.8536 12.1145C69.8536 11.7822 69.9855 11.4637 70.2204 11.2288L74.7639 6.68366L70.2204 2.13849C70.104 2.02225 70.0116 1.88419 69.9487 1.73223C69.8856 1.58026 69.8533 1.41736 69.8533 1.25285C69.8533 1.08834 69.8856 0.925444 69.9487 0.773478C70.0116 0.621511 70.104 0.483458 70.2204 0.367213Z" fill="#B3B3B3"/>
<path d="M105.147 0.367213C105.263 0.250803 105.401 0.158453 105.553 0.0954427C105.705 0.0324328 105.868 0 106.033 0C106.197 0 106.36 0.0324328 106.512 0.0954427C106.664 0.158453 106.802 0.250803 106.918 0.367213L111.463 4.91071L116.008 0.367213C116.125 0.25091 116.263 0.158652 116.415 0.0957091C116.567 0.032766 116.729 0.00036972 116.894 0.000369716C117.059 0.000369713 117.222 0.032766 117.374 0.0957091C117.526 0.158652 117.664 0.25091 117.78 0.367213C117.896 0.483517 117.988 0.62159 118.051 0.773548C118.115 0.925506 118.147 1.08837 118.147 1.25285C118.147 1.41733 118.115 1.5802 118.051 1.73215C117.988 1.88412 117.896 2.02219 117.78 2.13849L113.237 6.68366L117.78 11.2288C118.014 11.4637 118.147 11.7822 118.147 12.1145C118.147 12.4466 118.014 12.7652 117.78 13.0001C117.545 13.235 117.226 13.367 116.894 13.367C116.562 13.367 116.243 13.235 116.008 13.0001L111.463 8.4566L106.918 13.0001C106.683 13.235 106.365 13.367 106.033 13.367C105.7 13.367 105.382 13.235 105.147 13.0001C104.912 12.7652 104.78 12.4466 104.78 12.1145C104.78 11.7822 104.912 11.4637 105.147 11.2288L109.69 6.68366L105.147 2.13849C105.031 2.02225 104.938 1.88419 104.875 1.73223C104.812 1.58026 104.78 1.41736 104.78 1.25285C104.78 1.08834 104.812 0.925444 104.875 0.773478C104.938 0.621511 105.031 0.483458 105.147 0.367213Z" fill="#B3B3B3"/>
<path d="M140.074 0.367213C140.189 0.250803 140.327 0.158453 140.479 0.0954427C140.631 0.0324328 140.795 0 140.959 0C141.124 0 141.287 0.0324328 141.439 0.0954427C141.591 0.158453 141.729 0.250803 141.845 0.367213L146.39 4.91071L150.935 0.367213C151.051 0.25091 151.189 0.158652 151.341 0.0957091C151.493 0.032766 151.656 0.00036972 151.821 0.000369716C151.986 0.000369713 152.149 0.032766 152.301 0.0957091C152.453 0.158652 152.591 0.25091 152.707 0.367213C152.822 0.483517 152.915 0.62159 152.978 0.773548C153.041 0.925506 153.074 1.08837 153.074 1.25285C153.074 1.41733 153.041 1.5802 152.978 1.73215C152.915 1.88412 152.822 2.02219 152.707 2.13849L148.163 6.68366L152.707 11.2288C152.941 11.4637 153.074 11.7822 153.074 12.1145C153.074 12.4466 152.941 12.7652 152.707 13.0001C152.472 13.235 152.153 13.367 151.821 13.367C151.489 13.367 151.17 13.235 150.935 13.0001L146.39 8.4566L141.845 13.0001C141.61 13.235 141.291 13.367 140.959 13.367C140.627 13.367 140.308 13.235 140.074 13.0001C139.839 12.7652 139.707 12.4466 139.707 12.1145C139.707 11.7822 139.839 11.4637 140.074 11.2288L144.617 6.68366L140.074 2.13849C139.958 2.02225 139.865 1.88419 139.801 1.73223C139.739 1.58026 139.707 1.41736 139.707 1.25285C139.707 1.08834 139.739 0.925444 139.801 0.773478C139.865 0.621511 139.958 0.483458 140.074 0.367213Z" fill="#B3B3B3"/>
<path d="M175.001 0.367213C175.116 0.250803 175.254 0.158453 175.406 0.0954427C175.558 0.0324328 175.722 0 175.886 0C176.051 0 176.213 0.0324328 176.365 0.0954427C176.517 0.158453 176.655 0.250803 176.772 0.367213L181.317 4.91071L185.861 0.367213C185.978 0.25091 186.116 0.158652 186.268 0.0957091C186.42 0.032766 186.582 0.00036972 186.747 0.000369716C186.912 0.000369713 187.075 0.032766 187.227 0.0957091C187.379 0.158652 187.517 0.25091 187.634 0.367213C187.749 0.483517 187.842 0.62159 187.904 0.773548C187.968 0.925506 188 1.08837 188 1.25285C188 1.41733 187.968 1.5802 187.904 1.73215C187.842 1.88412 187.749 2.02219 187.634 2.13849L183.09 6.68366L187.634 11.2288C187.867 11.4637 188 11.7822 188 12.1145C188 12.4466 187.867 12.7652 187.634 13.0001C187.399 13.235 187.079 13.367 186.747 13.367C186.415 13.367 186.096 13.235 185.861 13.0001L181.317 8.4566L176.772 13.0001C176.537 13.235 176.218 13.367 175.886 13.367C175.554 13.367 175.235 13.235 175.001 13.0001C174.766 12.7652 174.633 12.4466 174.633 12.1145C174.633 11.7822 174.766 11.4637 175.001 11.2288L179.543 6.68366L175.001 2.13849C174.884 2.02225 174.792 1.88419 174.728 1.73223C174.665 1.58026 174.633 1.41736 174.633 1.25285C174.633 1.08834 174.665 0.925444 174.728 0.773478C174.792 0.621511 174.884 0.483458 175.001 0.367213Z" fill="#B3B3B3"/>
<path d="M0.367213 35.2938C0.483458 35.1773 0.621511 35.0851 0.773478 35.022C0.925444 34.9591 1.08834 34.9266 1.25285 34.9266C1.41736 34.9266 1.58026 34.9591 1.73223 35.022C1.88419 35.0851 2.02225 35.1773 2.13849 35.2938L6.68366 39.8372L11.2288 35.2938C11.3451 35.1775 11.4832 35.0853 11.6352 35.0223C11.7871 34.9594 11.95 34.9269 12.1145 34.9269C12.279 34.9269 12.4418 34.9594 12.5937 35.0223C12.7457 35.0853 12.8838 35.1775 13.0001 35.2938C13.1164 35.4101 13.2086 35.5482 13.2716 35.7002C13.3345 35.8521 13.367 36.0149 13.367 36.1794C13.367 36.3439 13.3345 36.5068 13.2716 36.6587C13.2086 36.8107 13.1164 36.9488 13.0001 37.0651L8.4566 41.6102L13.0001 46.1554C13.235 46.3903 13.367 46.7088 13.367 47.0411C13.367 47.3732 13.235 47.6917 13.0001 47.9266C12.7652 48.1615 12.4466 48.2936 12.1145 48.2936C11.7822 48.2936 11.4637 48.1615 11.2288 47.9266L6.68366 43.3832L2.13849 47.9266C1.90361 48.1615 1.58503 48.2936 1.25285 48.2936C0.920673 48.2936 0.602099 48.1615 0.367213 47.9266C0.132328 47.6917 0.000369716 47.3732 0.000369716 47.0411C0.000369716 46.7088 0.132328 46.3903 0.367213 46.1554L4.91071 41.6102L0.367213 37.0651C0.250803 36.9488 0.158453 36.8108 0.0954427 36.6588C0.0324328 36.5068 0 36.3439 0 36.1794C0 36.0149 0.0324328 35.8521 0.0954427 35.7001C0.158453 35.5481 0.250803 35.4101 0.367213 35.2938Z" fill="#B3B3B3"/>
<path d="M35.2937 35.2938C35.41 35.1773 35.5481 35.0851 35.7 35.022C35.852 34.9591 36.0148 34.9266 36.1793 34.9266C36.3438 34.9266 36.5067 34.9591 36.6587 35.022C36.8107 35.0851 36.9488 35.1773 37.065 35.2938L41.6102 39.8372L46.1553 35.2938C46.2716 35.1775 46.4097 35.0853 46.5617 35.0223C46.7136 34.9594 46.8765 34.9269 47.041 34.9269C47.2055 34.9269 47.3684 34.9594 47.5202 35.0223C47.6722 35.0853 47.8103 35.1775 47.9266 35.2938C48.043 35.4101 48.1351 35.5482 48.1981 35.7002C48.261 35.8521 48.2935 36.0149 48.2935 36.1794C48.2935 36.3439 48.261 36.5068 48.1981 36.6587C48.1351 36.8107 48.043 36.9488 47.9266 37.0651L43.3832 41.6102L47.9266 46.1554C48.1615 46.3903 48.2935 46.7088 48.2935 47.0411C48.2935 47.3732 48.1615 47.6917 47.9266 47.9266C47.6918 48.1615 47.3731 48.2936 47.041 48.2936C46.7087 48.2936 46.3902 48.1615 46.1553 47.9266L41.6102 43.3832L37.065 47.9266C36.8301 48.1615 36.5116 48.2936 36.1793 48.2936C35.8472 48.2936 35.5286 48.1615 35.2937 47.9266C35.0589 47.6917 34.9268 47.3732 34.9268 47.0411C34.9268 46.7088 35.0589 46.3903 35.2937 46.1554L39.8373 41.6102L35.2937 37.0651C35.1774 36.9488 35.085 36.8108 35.0219 36.6588C34.959 36.5068 34.9265 36.3439 34.9265 36.1794C34.9265 36.0149 34.959 35.8521 35.0219 35.7001C35.085 35.5481 35.1774 35.4101 35.2937 35.2938Z" fill="#B3B3B3"/>
<path d="M70.2204 35.2938C70.3366 35.1773 70.4747 35.0851 70.6267 35.022C70.7786 34.9591 70.9416 34.9266 71.1061 34.9266C71.2706 34.9266 71.4335 34.9591 71.5855 35.022C71.7374 35.0851 71.8755 35.1773 71.9917 35.2938L76.5369 39.8372L81.0821 35.2938C81.1984 35.1775 81.3365 35.0853 81.4884 35.0223C81.6404 34.9594 81.8032 34.9269 81.9676 34.9269C82.1321 34.9269 82.295 34.9594 82.447 35.0223C82.5989 35.0853 82.737 35.1775 82.8533 35.2938C82.9696 35.4101 83.0619 35.5482 83.1248 35.7002C83.1878 35.8521 83.2201 36.0149 83.2201 36.1794C83.2201 36.3439 83.1878 36.5068 83.1248 36.6587C83.0619 36.8107 82.9696 36.9488 82.8533 37.0651L78.3098 41.6102L82.8533 46.1554C83.0882 46.3903 83.2201 46.7088 83.2201 47.0411C83.2201 47.3732 83.0882 47.6917 82.8533 47.9266C82.6184 48.1615 82.2999 48.2936 81.9676 48.2936C81.6355 48.2936 81.317 48.1615 81.0821 47.9266L76.5369 43.3832L71.9917 47.9266C71.7568 48.1615 71.4382 48.2936 71.1061 48.2936C70.7739 48.2936 70.4553 48.1615 70.2204 47.9266C69.9855 47.6917 69.8536 47.3732 69.8536 47.0411C69.8536 46.7088 69.9855 46.3903 70.2204 46.1554L74.7639 41.6102L70.2204 37.0651C70.104 36.9488 70.0116 36.8108 69.9487 36.6588C69.8856 36.5068 69.8533 36.3439 69.8533 36.1794C69.8533 36.0149 69.8856 35.8521 69.9487 35.7001C70.0116 35.5481 70.104 35.4101 70.2204 35.2938Z" fill="#B3B3B3"/>
<path d="M105.147 35.2938C105.263 35.1773 105.401 35.0851 105.553 35.022C105.705 34.9591 105.868 34.9266 106.033 34.9266C106.197 34.9266 106.36 34.9591 106.512 35.022C106.664 35.0851 106.802 35.1773 106.918 35.2938L111.463 39.8372L116.008 35.2938C116.125 35.1775 116.263 35.0853 116.415 35.0223C116.567 34.9594 116.729 34.9269 116.894 34.9269C117.059 34.9269 117.222 34.9594 117.374 35.0223C117.526 35.0853 117.664 35.1775 117.78 35.2938C117.896 35.4101 117.988 35.5482 118.051 35.7002C118.115 35.8521 118.147 36.0149 118.147 36.1794C118.147 36.3439 118.115 36.5068 118.051 36.6587C117.988 36.8107 117.896 36.9488 117.78 37.0651L113.237 41.6102L117.78 46.1554C118.014 46.3903 118.147 46.7088 118.147 47.0411C118.147 47.3732 118.014 47.6917 117.78 47.9266C117.545 48.1615 117.226 48.2936 116.894 48.2936C116.562 48.2936 116.243 48.1615 116.008 47.9266L111.463 43.3832L106.918 47.9266C106.683 48.1615 106.365 48.2936 106.033 48.2936C105.7 48.2936 105.382 48.1615 105.147 47.9266C104.912 47.6917 104.78 47.3732 104.78 47.0411C104.78 46.7088 104.912 46.3903 105.147 46.1554L109.69 41.6102L105.147 37.0651C105.031 36.9488 104.938 36.8108 104.875 36.6588C104.812 36.5068 104.78 36.3439 104.78 36.1794C104.78 36.0149 104.812 35.8521 104.875 35.7001C104.938 35.5481 105.031 35.4101 105.147 35.2938Z" fill="#B3B3B3"/>
<path d="M140.074 35.2938C140.189 35.1773 140.327 35.0851 140.479 35.022C140.631 34.9591 140.795 34.9266 140.959 34.9266C141.124 34.9266 141.287 34.9591 141.439 35.022C141.591 35.0851 141.729 35.1773 141.845 35.2938L146.39 39.8372L150.935 35.2938C151.051 35.1775 151.189 35.0853 151.341 35.0223C151.493 34.9594 151.656 34.9269 151.821 34.9269C151.986 34.9269 152.149 34.9594 152.301 35.0223C152.453 35.0853 152.591 35.1775 152.707 35.2938C152.822 35.4101 152.915 35.5482 152.978 35.7002C153.041 35.8521 153.074 36.0149 153.074 36.1794C153.074 36.3439 153.041 36.5068 152.978 36.6587C152.915 36.8107 152.822 36.9488 152.707 37.0651L148.163 41.6102L152.707 46.1554C152.941 46.3903 153.074 46.7088 153.074 47.0411C153.074 47.3732 152.941 47.6917 152.707 47.9266C152.472 48.1615 152.153 48.2936 151.821 48.2936C151.489 48.2936 151.17 48.1615 150.935 47.9266L146.39 43.3832L141.845 47.9266C141.61 48.1615 141.291 48.2936 140.959 48.2936C140.627 48.2936 140.308 48.1615 140.074 47.9266C139.839 47.6917 139.707 47.3732 139.707 47.0411C139.707 46.7088 139.839 46.3903 140.074 46.1554L144.617 41.6102L140.074 37.0651C139.958 36.9488 139.865 36.8108 139.801 36.6588C139.739 36.5068 139.707 36.3439 139.707 36.1794C139.707 36.0149 139.739 35.8521 139.801 35.7001C139.865 35.5481 139.958 35.4101 140.074 35.2938Z" fill="#B3B3B3"/>
<path d="M175.001 35.2938C175.116 35.1773 175.254 35.0851 175.406 35.022C175.558 34.9591 175.722 34.9266 175.886 34.9266C176.051 34.9266 176.213 34.9591 176.365 35.022C176.517 35.0851 176.655 35.1773 176.772 35.2938L181.317 39.8372L185.861 35.2938C185.978 35.1775 186.116 35.0853 186.268 35.0223C186.42 34.9594 186.582 34.9269 186.747 34.9269C186.912 34.9269 187.075 34.9594 187.227 35.0223C187.379 35.0853 187.517 35.1775 187.634 35.2938C187.749 35.4101 187.842 35.5482 187.904 35.7002C187.968 35.8521 188 36.0149 188 36.1794C188 36.3439 187.968 36.5068 187.904 36.6587C187.842 36.8107 187.749 36.9488 187.634 37.0651L183.09 41.6102L187.634 46.1554C187.867 46.3903 188 46.7088 188 47.0411C188 47.3732 187.867 47.6917 187.634 47.9266C187.399 48.1615 187.079 48.2936 186.747 48.2936C186.415 48.2936 186.096 48.1615 185.861 47.9266L181.317 43.3832L176.772 47.9266C176.537 48.1615 176.218 48.2936 175.886 48.2936C175.554 48.2936 175.235 48.1615 175.001 47.9266C174.766 47.6917 174.633 47.3732 174.633 47.0411C174.633 46.7088 174.766 46.3903 175.001 46.1554L179.543 41.6102L175.001 37.0651C174.884 36.9488 174.792 36.8108 174.728 36.6588C174.665 36.5068 174.633 36.3439 174.633 36.1794C174.633 36.0149 174.665 35.8521 174.728 35.7001C174.792 35.5481 174.884 35.4101 175.001 35.2938Z" fill="#B3B3B3"/>
<path d="M0.367213 70.2204C0.483458 70.1039 0.621511 70.0116 0.773478 69.9486C0.925444 69.8856 1.08834 69.8532 1.25285 69.8532C1.41736 69.8532 1.58026 69.8856 1.73223 69.9486C1.88419 70.0116 2.02225 70.1039 2.13849 70.2204L6.68366 74.7638L11.2288 70.2204C11.3451 70.1041 11.4832 70.0118 11.6352 69.9488C11.7871 69.8859 11.95 69.8535 12.1145 69.8535C12.279 69.8535 12.4418 69.8859 12.5937 69.9488C12.7457 70.0118 12.8838 70.1041 13.0001 70.2204C13.1164 70.3367 13.2086 70.4748 13.2716 70.6267C13.3345 70.7787 13.367 70.9415 13.367 71.106C13.367 71.2705 13.3345 71.4333 13.2716 71.5853C13.2086 71.7373 13.1164 71.8754 13.0001 71.9916L8.4566 76.5368L13.0001 81.082C13.235 81.3169 13.367 81.6354 13.367 81.9676C13.367 82.2998 13.235 82.6183 13.0001 82.8532C12.7652 83.0881 12.4466 83.2201 12.1145 83.2201C11.7822 83.2201 11.4637 83.0881 11.2288 82.8532L6.68366 78.3098L2.13849 82.8532C1.90361 83.0881 1.58503 83.2201 1.25285 83.2201C0.920673 83.2201 0.602099 83.0881 0.367213 82.8532C0.132328 82.6183 0.000369716 82.2998 0.000369716 81.9676C0.000369716 81.6354 0.132328 81.3169 0.367213 81.082L4.91071 76.5368L0.367213 71.9916C0.250803 71.8754 0.158453 71.7373 0.0954427 71.5854C0.0324328 71.4334 0 71.2705 0 71.106C0 70.9415 0.0324328 70.7785 0.0954427 70.6267C0.158453 70.4747 0.250803 70.3366 0.367213 70.2204Z" fill="#B3B3B3"/>
<path d="M35.2937 70.2204C35.41 70.1039 35.5481 70.0116 35.7 69.9486C35.852 69.8856 36.0148 69.8532 36.1793 69.8532C36.3438 69.8532 36.5067 69.8856 36.6587 69.9486C36.8107 70.0116 36.9488 70.1039 37.065 70.2204L41.6102 74.7638L46.1553 70.2204C46.2716 70.1041 46.4097 70.0118 46.5617 69.9488C46.7136 69.8859 46.8765 69.8535 47.041 69.8535C47.2055 69.8535 47.3684 69.8859 47.5202 69.9488C47.6722 70.0118 47.8103 70.1041 47.9266 70.2204C48.043 70.3367 48.1351 70.4748 48.1981 70.6267C48.261 70.7787 48.2935 70.9415 48.2935 71.106C48.2935 71.2705 48.261 71.4333 48.1981 71.5853C48.1351 71.7373 48.043 71.8754 47.9266 71.9916L43.3832 76.5368L47.9266 81.082C48.1615 81.3169 48.2935 81.6354 48.2935 81.9676C48.2935 82.2998 48.1615 82.6183 47.9266 82.8532C47.6918 83.0881 47.3731 83.2201 47.041 83.2201C46.7087 83.2201 46.3902 83.0881 46.1553 82.8532L41.6102 78.3098L37.065 82.8532C36.8301 83.0881 36.5116 83.2201 36.1793 83.2201C35.8472 83.2201 35.5286 83.0881 35.2937 82.8532C35.0589 82.6183 34.9268 82.2998 34.9268 81.9676C34.9268 81.6354 35.0589 81.3169 35.2937 81.082L39.8373 76.5368L35.2937 71.9916C35.1774 71.8754 35.085 71.7373 35.0219 71.5854C34.959 71.4334 34.9265 71.2705 34.9265 71.106C34.9265 70.9415 34.959 70.7785 35.0219 70.6267C35.085 70.4747 35.1774 70.3366 35.2937 70.2204Z" fill="#B3B3B3"/>
<path d="M70.2204 70.2204C70.3366 70.1039 70.4747 70.0116 70.6267 69.9486C70.7786 69.8856 70.9416 69.8532 71.1061 69.8532C71.2706 69.8532 71.4335 69.8856 71.5855 69.9486C71.7374 70.0116 71.8755 70.1039 71.9917 70.2204L76.5369 74.7638L81.0821 70.2204C81.1984 70.1041 81.3365 70.0118 81.4884 69.9488C81.6404 69.8859 81.8032 69.8535 81.9676 69.8535C82.1321 69.8535 82.295 69.8859 82.447 69.9488C82.5989 70.0118 82.737 70.1041 82.8533 70.2204C82.9696 70.3367 83.0619 70.4748 83.1248 70.6267C83.1878 70.7787 83.2201 70.9415 83.2201 71.106C83.2201 71.2705 83.1878 71.4333 83.1248 71.5853C83.0619 71.7373 82.9696 71.8754 82.8533 71.9916L78.3098 76.5368L82.8533 81.082C83.0882 81.3169 83.2201 81.6354 83.2201 81.9676C83.2201 82.2998 83.0882 82.6183 82.8533 82.8532C82.6184 83.0881 82.2999 83.2201 81.9676 83.2201C81.6355 83.2201 81.317 83.0881 81.0821 82.8532L76.5369 78.3098L71.9917 82.8532C71.7568 83.0881 71.4382 83.2201 71.1061 83.2201C70.7739 83.2201 70.4553 83.0881 70.2204 82.8532C69.9855 82.6183 69.8536 82.2998 69.8536 81.9676C69.8536 81.6354 69.9855 81.3169 70.2204 81.082L74.7639 76.5368L70.2204 71.9916C70.104 71.8754 70.0116 71.7373 69.9487 71.5854C69.8856 71.4334 69.8533 71.2705 69.8533 71.106C69.8533 70.9415 69.8856 70.7785 69.9487 70.6267C70.0116 70.4747 70.104 70.3366 70.2204 70.2204Z" fill="#B3B3B3"/>
<path d="M105.147 70.2204C105.263 70.1039 105.401 70.0116 105.553 69.9486C105.705 69.8856 105.868 69.8532 106.033 69.8532C106.197 69.8532 106.36 69.8856 106.512 69.9486C106.664 70.0116 106.802 70.1039 106.918 70.2204L111.463 74.7638L116.008 70.2204C116.125 70.1041 116.263 70.0118 116.415 69.9488C116.567 69.8859 116.729 69.8535 116.894 69.8535C117.059 69.8535 117.222 69.8859 117.374 69.9488C117.526 70.0118 117.664 70.1041 117.78 70.2204C117.896 70.3367 117.988 70.4748 118.051 70.6267C118.115 70.7787 118.147 70.9415 118.147 71.106C118.147 71.2705 118.115 71.4333 118.051 71.5853C117.988 71.7373 117.896 71.8754 117.78 71.9916L113.237 76.5368L117.78 81.082C118.014 81.3169 118.147 81.6354 118.147 81.9676C118.147 82.2998 118.014 82.6183 117.78 82.8532C117.545 83.0881 117.226 83.2201 116.894 83.2201C116.562 83.2201 116.243 83.0881 116.008 82.8532L111.463 78.3098L106.918 82.8532C106.683 83.0881 106.365 83.2201 106.033 83.2201C105.7 83.2201 105.382 83.0881 105.147 82.8532C104.912 82.6183 104.78 82.2998 104.78 81.9676C104.78 81.6354 104.912 81.3169 105.147 81.082L109.69 76.5368L105.147 71.9916C105.031 71.8754 104.938 71.7373 104.875 71.5854C104.812 71.4334 104.78 71.2705 104.78 71.106C104.78 70.9415 104.812 70.7785 104.875 70.6267C104.938 70.4747 105.031 70.3366 105.147 70.2204Z" fill="#B3B3B3"/>
<path d="M140.074 70.2204C140.189 70.1039 140.327 70.0116 140.479 69.9486C140.631 69.8856 140.795 69.8532 140.959 69.8532C141.124 69.8532 141.287 69.8856 141.439 69.9486C141.591 70.0116 141.729 70.1039 141.845 70.2204L146.39 74.7638L150.935 70.2204C151.051 70.1041 151.189 70.0118 151.341 69.9488C151.493 69.8859 151.656 69.8535 151.821 69.8535C151.986 69.8535 152.149 69.8859 152.301 69.9488C152.453 70.0118 152.591 70.1041 152.707 70.2204C152.822 70.3367 152.915 70.4748 152.978 70.6267C153.041 70.7787 153.074 70.9415 153.074 71.106C153.074 71.2705 153.041 71.4333 152.978 71.5853C152.915 71.7373 152.822 71.8754 152.707 71.9916L148.163 76.5368L152.707 81.082C152.941 81.3169 153.074 81.6354 153.074 81.9676C153.074 82.2998 152.941 82.6183 152.707 82.8532C152.472 83.0881 152.153 83.2201 151.821 83.2201C151.489 83.2201 151.17 83.0881 150.935 82.8532L146.39 78.3098L141.845 82.8532C141.61 83.0881 141.291 83.2201 140.959 83.2201C140.627 83.2201 140.308 83.0881 140.074 82.8532C139.839 82.6183 139.707 82.2998 139.707 81.9676C139.707 81.6354 139.839 81.3169 140.074 81.082L144.617 76.5368L140.074 71.9916C139.958 71.8754 139.865 71.7373 139.801 71.5854C139.739 71.4334 139.707 71.2705 139.707 71.106C139.707 70.9415 139.739 70.7785 139.801 70.6267C139.865 70.4747 139.958 70.3366 140.074 70.2204Z" fill="#B3B3B3"/>
<path d="M175.001 70.2204C175.116 70.1039 175.254 70.0116 175.406 69.9486C175.558 69.8856 175.722 69.8532 175.886 69.8532C176.051 69.8532 176.213 69.8856 176.365 69.9486C176.517 70.0116 176.655 70.1039 176.772 70.2204L181.317 74.7638L185.861 70.2204C185.978 70.1041 186.116 70.0118 186.268 69.9488C186.42 69.8859 186.582 69.8535 186.747 69.8535C186.912 69.8535 187.075 69.8859 187.227 69.9488C187.379 70.0118 187.517 70.1041 187.634 70.2204C187.749 70.3367 187.842 70.4748 187.904 70.6267C187.968 70.7787 188 70.9415 188 71.106C188 71.2705 187.968 71.4333 187.904 71.5853C187.842 71.7373 187.749 71.8754 187.634 71.9916L183.09 76.5368L187.634 81.082C187.867 81.3169 188 81.6354 188 81.9676C188 82.2998 187.867 82.6183 187.634 82.8532C187.399 83.0881 187.079 83.2201 186.747 83.2201C186.415 83.2201 186.096 83.0881 185.861 82.8532L181.317 78.3098L176.772 82.8532C176.537 83.0881 176.218 83.2201 175.886 83.2201C175.554 83.2201 175.235 83.0881 175.001 82.8532C174.766 82.6183 174.633 82.2998 174.633 81.9676C174.633 81.6354 174.766 81.3169 175.001 81.082L179.543 76.5368L175.001 71.9916C174.884 71.8754 174.792 71.7373 174.728 71.5854C174.665 71.4334 174.633 71.2705 174.633 71.106C174.633 70.9415 174.665 70.7785 174.728 70.6267C174.792 70.4747 174.884 70.3366 175.001 70.2204Z" fill="#B3B3B3"/>
<path d="M0.367213 105.147C0.483458 105.031 0.621511 104.938 0.773478 104.875C0.925444 104.812 1.08834 104.78 1.25285 104.78C1.41736 104.78 1.58026 104.812 1.73223 104.875C1.88419 104.938 2.02225 105.031 2.13849 105.147L6.68366 109.69L11.2288 105.147C11.3451 105.031 11.4832 104.938 11.6352 104.875C11.7871 104.812 11.95 104.78 12.1145 104.78C12.279 104.78 12.4418 104.812 12.5937 104.875C12.7457 104.938 12.8838 105.031 13.0001 105.147C13.1164 105.263 13.2086 105.401 13.2716 105.553C13.3345 105.705 13.367 105.868 13.367 106.033C13.367 106.197 13.3345 106.36 13.2716 106.512C13.2086 106.664 13.1164 106.802 13.0001 106.918L8.4566 111.463L13.0001 116.008C13.235 116.243 13.367 116.562 13.367 116.894C13.367 117.226 13.235 117.545 13.0001 117.78C12.7652 118.014 12.4466 118.147 12.1145 118.147C11.7822 118.147 11.4637 118.014 11.2288 117.78L6.68366 113.237L2.13849 117.78C1.90361 118.014 1.58503 118.147 1.25285 118.147C0.920673 118.147 0.602099 118.014 0.367213 117.78C0.132328 117.545 0.000369716 117.226 0.000369716 116.894C0.000369716 116.562 0.132328 116.243 0.367213 116.008L4.91071 111.463L0.367213 106.918C0.250803 106.802 0.158453 106.664 0.0954427 106.512C0.0324328 106.36 0 106.197 0 106.033C0 105.868 0.0324328 105.705 0.0954427 105.553C0.158453 105.401 0.250803 105.263 0.367213 105.147Z" fill="#B3B3B3"/>
<path d="M35.2937 105.147C35.41 105.031 35.5481 104.938 35.7 104.875C35.852 104.812 36.0148 104.78 36.1793 104.78C36.3438 104.78 36.5067 104.812 36.6587 104.875C36.8107 104.938 36.9488 105.031 37.065 105.147L41.6102 109.69L46.1553 105.147C46.2716 105.031 46.4097 104.938 46.5617 104.875C46.7136 104.812 46.8765 104.78 47.041 104.78C47.2055 104.78 47.3684 104.812 47.5202 104.875C47.6722 104.938 47.8103 105.031 47.9266 105.147C48.043 105.263 48.1351 105.401 48.1981 105.553C48.261 105.705 48.2935 105.868 48.2935 106.033C48.2935 106.197 48.261 106.36 48.1981 106.512C48.1351 106.664 48.043 106.802 47.9266 106.918L43.3832 111.463L47.9266 116.008C48.1615 116.243 48.2935 116.562 48.2935 116.894C48.2935 117.226 48.1615 117.545 47.9266 117.78C47.6918 118.014 47.3731 118.147 47.041 118.147C46.7087 118.147 46.3902 118.014 46.1553 117.78L41.6102 113.237L37.065 117.78C36.8301 118.014 36.5116 118.147 36.1793 118.147C35.8472 118.147 35.5286 118.014 35.2937 117.78C35.0589 117.545 34.9268 117.226 34.9268 116.894C34.9268 116.562 35.0589 116.243 35.2937 116.008L39.8373 111.463L35.2937 106.918C35.1774 106.802 35.085 106.664 35.0219 106.512C34.959 106.36 34.9265 106.197 34.9265 106.033C34.9265 105.868 34.959 105.705 35.0219 105.553C35.085 105.401 35.1774 105.263 35.2937 105.147Z" fill="#B3B3B3"/>
<path d="M70.2204 105.147C70.3366 105.031 70.4747 104.938 70.6267 104.875C70.7786 104.812 70.9416 104.78 71.1061 104.78C71.2706 104.78 71.4335 104.812 71.5855 104.875C71.7374 104.938 71.8755 105.031 71.9917 105.147L76.5369 109.69L81.0821 105.147C81.1984 105.031 81.3365 104.938 81.4884 104.875C81.6404 104.812 81.8032 104.78 81.9676 104.78C82.1321 104.78 82.295 104.812 82.447 104.875C82.5989 104.938 82.737 105.031 82.8533 105.147C82.9696 105.263 83.0619 105.401 83.1248 105.553C83.1878 105.705 83.2201 105.868 83.2201 106.033C83.2201 106.197 83.1878 106.36 83.1248 106.512C83.0619 106.664 82.9696 106.802 82.8533 106.918L78.3098 111.463L82.8533 116.008C83.0882 116.243 83.2201 116.562 83.2201 116.894C83.2201 117.226 83.0882 117.545 82.8533 117.78C82.6184 118.014 82.2999 118.147 81.9676 118.147C81.6355 118.147 81.317 118.014 81.0821 117.78L76.5369 113.237L71.9917 117.78C71.7568 118.014 71.4382 118.147 71.1061 118.147C70.7739 118.147 70.4553 118.014 70.2204 117.78C69.9855 117.545 69.8536 117.226 69.8536 116.894C69.8536 116.562 69.9855 116.243 70.2204 116.008L74.7639 111.463L70.2204 106.918C70.104 106.802 70.0116 106.664 69.9487 106.512C69.8856 106.36 69.8533 106.197 69.8533 106.033C69.8533 105.868 69.8856 105.705 69.9487 105.553C70.0116 105.401 70.104 105.263 70.2204 105.147Z" fill="#B3B3B3"/>
<path d="M105.147 105.147C105.263 105.031 105.401 104.938 105.553 104.875C105.705 104.812 105.868 104.78 106.033 104.78C106.197 104.78 106.36 104.812 106.512 104.875C106.664 104.938 106.802 105.031 106.918 105.147L111.463 109.69L116.008 105.147C116.125 105.031 116.263 104.938 116.415 104.875C116.567 104.812 116.729 104.78 116.894 104.78C117.059 104.78 117.222 104.812 117.374 104.875C117.526 104.938 117.664 105.031 117.78 105.147C117.896 105.263 117.988 105.401 118.051 105.553C118.115 105.705 118.147 105.868 118.147 106.033C118.147 106.197 118.115 106.36 118.051 106.512C117.988 106.664 117.896 106.802 117.78 106.918L113.237 111.463L117.78 116.008C118.014 116.243 118.147 116.562 118.147 116.894C118.147 117.226 118.014 117.545 117.78 117.78C117.545 118.014 117.226 118.147 116.894 118.147C116.562 118.147 116.243 118.014 116.008 117.78L111.463 113.237L106.918 117.78C106.683 118.014 106.365 118.147 106.033 118.147C105.7 118.147 105.382 118.014 105.147 117.78C104.912 117.545 104.78 117.226 104.78 116.894C104.78 116.562 104.912 116.243 105.147 116.008L109.69 111.463L105.147 106.918C105.031 106.802 104.938 106.664 104.875 106.512C104.812 106.36 104.78 106.197 104.78 106.033C104.78 105.868 104.812 105.705 104.875 105.553C104.938 105.401 105.031 105.263 105.147 105.147Z" fill="#B3B3B3"/>
<path d="M140.074 105.147C140.189 105.031 140.327 104.938 140.479 104.875C140.631 104.812 140.795 104.78 140.959 104.78C141.124 104.78 141.287 104.812 141.439 104.875C141.591 104.938 141.729 105.031 141.845 105.147L146.39 109.69L150.935 105.147C151.051 105.031 151.189 104.938 151.341 104.875C151.493 104.812 151.656 104.78 151.821 104.78C151.986 104.78 152.149 104.812 152.301 104.875C152.453 104.938 152.591 105.031 152.707 105.147C152.822 105.263 152.915 105.401 152.978 105.553C153.041 105.705 153.074 105.868 153.074 106.033C153.074 106.197 153.041 106.36 152.978 106.512C152.915 106.664 152.822 106.802 152.707 106.918L148.163 111.463L152.707 116.008C152.941 116.243 153.074 116.562 153.074 116.894C153.074 117.226 152.941 117.545 152.707 117.78C152.472 118.014 152.153 118.147 151.821 118.147C151.489 118.147 151.17 118.014 150.935 117.78L146.39 113.237L141.845 117.78C141.61 118.014 141.291 118.147 140.959 118.147C140.627 118.147 140.308 118.014 140.074 117.78C139.839 117.545 139.707 117.226 139.707 116.894C139.707 116.562 139.839 116.243 140.074 116.008L144.617 111.463L140.074 106.918C139.958 106.802 139.865 106.664 139.801 106.512C139.739 106.36 139.707 106.197 139.707 106.033C139.707 105.868 139.739 105.705 139.801 105.553C139.865 105.401 139.958 105.263 140.074 105.147Z" fill="#B3B3B3"/>
<path d="M175.001 105.147C175.116 105.031 175.254 104.938 175.406 104.875C175.558 104.812 175.722 104.78 175.886 104.78C176.051 104.78 176.213 104.812 176.365 104.875C176.517 104.938 176.655 105.031 176.772 105.147L181.317 109.69L185.861 105.147C185.978 105.031 186.116 104.938 186.268 104.875C186.42 104.812 186.582 104.78 186.747 104.78C186.912 104.78 187.075 104.812 187.227 104.875C187.379 104.938 187.517 105.031 187.634 105.147C187.749 105.263 187.842 105.401 187.904 105.553C187.968 105.705 188 105.868 188 106.033C188 106.197 187.968 106.36 187.904 106.512C187.842 106.664 187.749 106.802 187.634 106.918L183.09 111.463L187.634 116.008C187.867 116.243 188 116.562 188 116.894C188 117.226 187.867 117.545 187.634 117.78C187.399 118.014 187.079 118.147 186.747 118.147C186.415 118.147 186.096 118.014 185.861 117.78L181.317 113.237L176.772 117.78C176.537 118.014 176.218 118.147 175.886 118.147C175.554 118.147 175.235 118.014 175.001 117.78C174.766 117.545 174.633 117.226 174.633 116.894C174.633 116.562 174.766 116.243 175.001 116.008L179.543 111.463L175.001 106.918C174.884 106.802 174.792 106.664 174.728 106.512C174.665 106.36 174.633 106.197 174.633 106.033C174.633 105.868 174.665 105.705 174.728 105.553C174.792 105.401 174.884 105.263 175.001 105.147Z" fill="#B3B3B3"/>
<path d="M0.367213 140.074C0.483458 139.958 0.621511 139.865 0.773478 139.801C0.925444 139.739 1.08834 139.706 1.25285 139.706C1.41736 139.706 1.58026 139.739 1.73223 139.801C1.88419 139.865 2.02225 139.958 2.13849 140.074L6.68366 144.617L11.2288 140.074C11.3451 139.958 11.4832 139.865 11.6352 139.802C11.7871 139.739 11.95 139.706 12.1145 139.706C12.279 139.706 12.4418 139.739 12.5937 139.802C12.7457 139.865 12.8838 139.958 13.0001 140.074C13.1164 140.189 13.2086 140.328 13.2716 140.479C13.3345 140.631 13.367 140.795 13.367 140.959C13.367 141.124 13.3345 141.287 13.2716 141.439C13.2086 141.591 13.1164 141.729 13.0001 141.845L8.4566 146.39L13.0001 150.935C13.235 151.17 13.367 151.489 13.367 151.821C13.367 152.153 13.235 152.472 13.0001 152.707C12.7652 152.941 12.4466 153.073 12.1145 153.073C11.7822 153.073 11.4637 152.941 11.2288 152.707L6.68366 148.163L2.13849 152.707C1.90361 152.941 1.58503 153.073 1.25285 153.073C0.920673 153.073 0.602099 152.941 0.367213 152.707C0.132328 152.472 0.000369716 152.153 0.000369716 151.821C0.000369716 151.489 0.132328 151.17 0.367213 150.935L4.91071 146.39L0.367213 141.845C0.250803 141.729 0.158453 141.591 0.0954427 141.439C0.0324328 141.287 0 141.124 0 140.959C0 140.795 0.0324328 140.631 0.0954427 140.479C0.158453 140.327 0.250803 140.189 0.367213 140.074Z" fill="#B3B3B3"/>
<path d="M35.2937 140.074C35.41 139.958 35.5481 139.865 35.7 139.801C35.852 139.739 36.0148 139.706 36.1793 139.706C36.3438 139.706 36.5067 139.739 36.6587 139.801C36.8107 139.865 36.9488 139.958 37.065 140.074L41.6102 144.617L46.1553 140.074C46.2716 139.958 46.4097 139.865 46.5617 139.802C46.7136 139.739 46.8765 139.706 47.041 139.706C47.2055 139.706 47.3684 139.739 47.5202 139.802C47.6722 139.865 47.8103 139.958 47.9266 140.074C48.043 140.189 48.1351 140.328 48.1981 140.479C48.261 140.631 48.2935 140.795 48.2935 140.959C48.2935 141.124 48.261 141.287 48.1981 141.439C48.1351 141.591 48.043 141.729 47.9266 141.845L43.3832 146.39L47.9266 150.935C48.1615 151.17 48.2935 151.489 48.2935 151.821C48.2935 152.153 48.1615 152.472 47.9266 152.707C47.6918 152.941 47.3731 153.073 47.041 153.073C46.7087 153.073 46.3902 152.941 46.1553 152.707L41.6102 148.163L37.065 152.707C36.8301 152.941 36.5116 153.073 36.1793 153.073C35.8472 153.073 35.5286 152.941 35.2937 152.707C35.0589 152.472 34.9268 152.153 34.9268 151.821C34.9268 151.489 35.0589 151.17 35.2937 150.935L39.8373 146.39L35.2937 141.845C35.1774 141.729 35.085 141.591 35.0219 141.439C34.959 141.287 34.9265 141.124 34.9265 140.959C34.9265 140.795 34.959 140.631 35.0219 140.479C35.085 140.327 35.1774 140.189 35.2937 140.074Z" fill="#B3B3B3"/>
<path d="M70.2204 140.074C70.3366 139.958 70.4747 139.865 70.6267 139.801C70.7786 139.739 70.9416 139.706 71.1061 139.706C71.2706 139.706 71.4335 139.739 71.5855 139.801C71.7374 139.865 71.8755 139.958 71.9917 140.074L76.5369 144.617L81.0821 140.074C81.1984 139.958 81.3365 139.865 81.4884 139.802C81.6404 139.739 81.8032 139.706 81.9676 139.706C82.1321 139.706 82.295 139.739 82.447 139.802C82.5989 139.865 82.737 139.958 82.8533 140.074C82.9696 140.189 83.0619 140.328 83.1248 140.479C83.1878 140.631 83.2201 140.795 83.2201 140.959C83.2201 141.124 83.1878 141.287 83.1248 141.439C83.0619 141.591 82.9696 141.729 82.8533 141.845L78.3098 146.39L82.8533 150.935C83.0882 151.17 83.2201 151.489 83.2201 151.821C83.2201 152.153 83.0882 152.472 82.8533 152.707C82.6184 152.941 82.2999 153.073 81.9676 153.073C81.6355 153.073 81.317 152.941 81.0821 152.707L76.5369 148.163L71.9917 152.707C71.7568 152.941 71.4382 153.073 71.1061 153.073C70.7739 153.073 70.4553 152.941 70.2204 152.707C69.9855 152.472 69.8536 152.153 69.8536 151.821C69.8536 151.489 69.9855 151.17 70.2204 150.935L74.7639 146.39L70.2204 141.845C70.104 141.729 70.0116 141.591 69.9487 141.439C69.8856 141.287 69.8533 141.124 69.8533 140.959C69.8533 140.795 69.8856 140.631 69.9487 140.479C70.0116 140.327 70.104 140.189 70.2204 140.074Z" fill="#B3B3B3"/>
<path d="M105.147 140.074C105.263 139.958 105.401 139.865 105.553 139.801C105.705 139.739 105.868 139.706 106.033 139.706C106.197 139.706 106.36 139.739 106.512 139.801C106.664 139.865 106.802 139.958 106.918 140.074L111.463 144.617L116.008 140.074C116.125 139.958 116.263 139.865 116.415 139.802C116.567 139.739 116.729 139.706 116.894 139.706C117.059 139.706 117.222 139.739 117.374 139.802C117.526 139.865 117.664 139.958 117.78 140.074C117.896 140.189 117.988 140.328 118.051 140.479C118.115 140.631 118.147 140.795 118.147 140.959C118.147 141.124 118.115 141.287 118.051 141.439C117.988 141.591 117.896 141.729 117.78 141.845L113.237 146.39L117.78 150.935C118.014 151.17 118.147 151.489 118.147 151.821C118.147 152.153 118.014 152.472 117.78 152.707C117.545 152.941 117.226 153.073 116.894 153.073C116.562 153.073 116.243 152.941 116.008 152.707L111.463 148.163L106.918 152.707C106.683 152.941 106.365 153.073 106.033 153.073C105.7 153.073 105.382 152.941 105.147 152.707C104.912 152.472 104.78 152.153 104.78 151.821C104.78 151.489 104.912 151.17 105.147 150.935L109.69 146.39L105.147 141.845C105.031 141.729 104.938 141.591 104.875 141.439C104.812 141.287 104.78 141.124 104.78 140.959C104.78 140.795 104.812 140.631 104.875 140.479C104.938 140.327 105.031 140.189 105.147 140.074Z" fill="#B3B3B3"/>
<path d="M140.074 140.074C140.189 139.958 140.327 139.865 140.479 139.801C140.631 139.739 140.795 139.706 140.959 139.706C141.124 139.706 141.287 139.739 141.439 139.801C141.591 139.865 141.729 139.958 141.845 140.074L146.39 144.617L150.935 140.074C151.051 139.958 151.189 139.865 151.341 139.802C151.493 139.739 151.656 139.706 151.821 139.706C151.986 139.706 152.149 139.739 152.301 139.802C152.453 139.865 152.591 139.958 152.707 140.074C152.822 140.189 152.915 140.328 152.978 140.479C153.041 140.631 153.074 140.795 153.074 140.959C153.074 141.124 153.041 141.287 152.978 141.439C152.915 141.591 152.822 141.729 152.707 141.845L148.163 146.39L152.707 150.935C152.941 151.17 153.074 151.489 153.074 151.821C153.074 152.153 152.941 152.472 152.707 152.707C152.472 152.941 152.153 153.073 151.821 153.073C151.489 153.073 151.17 152.941 150.935 152.707L146.39 148.163L141.845 152.707C141.61 152.941 141.291 153.073 140.959 153.073C140.627 153.073 140.308 152.941 140.074 152.707C139.839 152.472 139.707 152.153 139.707 151.821C139.707 151.489 139.839 151.17 140.074 150.935L144.617 146.39L140.074 141.845C139.958 141.729 139.865 141.591 139.801 141.439C139.739 141.287 139.707 141.124 139.707 140.959C139.707 140.795 139.739 140.631 139.801 140.479C139.865 140.327 139.958 140.189 140.074 140.074Z" fill="#B3B3B3"/>
<path d="M175.001 140.074C175.116 139.958 175.254 139.865 175.406 139.801C175.558 139.739 175.722 139.706 175.886 139.706C176.051 139.706 176.213 139.739 176.365 139.801C176.517 139.865 176.655 139.958 176.772 140.074L181.317 144.617L185.861 140.074C185.978 139.958 186.116 139.865 186.268 139.802C186.42 139.739 186.582 139.706 186.747 139.706C186.912 139.706 187.075 139.739 187.227 139.802C187.379 139.865 187.517 139.958 187.634 140.074C187.749 140.189 187.842 140.328 187.904 140.479C187.968 140.631 188 140.795 188 140.959C188 141.124 187.968 141.287 187.904 141.439C187.842 141.591 187.749 141.729 187.634 141.845L183.09 146.39L187.634 150.935C187.867 151.17 188 151.489 188 151.821C188 152.153 187.867 152.472 187.634 152.707C187.399 152.941 187.079 153.073 186.747 153.073C186.415 153.073 186.096 152.941 185.861 152.707L181.317 148.163L176.772 152.707C176.537 152.941 176.218 153.073 175.886 153.073C175.554 153.073 175.235 152.941 175.001 152.707C174.766 152.472 174.633 152.153 174.633 151.821C174.633 151.489 174.766 151.17 175.001 150.935L179.543 146.39L175.001 141.845C174.884 141.729 174.792 141.591 174.728 141.439C174.665 141.287 174.633 141.124 174.633 140.959C174.633 140.795 174.665 140.631 174.728 140.479C174.792 140.327 174.884 140.189 175.001 140.074Z" fill="#B3B3B3"/>
<path d="M0.367213 175.001C0.483458 174.884 0.621511 174.791 0.773478 174.728C0.925444 174.665 1.08834 174.633 1.25285 174.633C1.41736 174.633 1.58026 174.665 1.73223 174.728C1.88419 174.791 2.02225 174.884 2.13849 175.001L6.68366 179.543L11.2288 175.001C11.3451 174.884 11.4832 174.791 11.6352 174.729C11.7871 174.665 11.95 174.633 12.1145 174.633C12.279 174.633 12.4418 174.665 12.5937 174.729C12.7457 174.791 12.8838 174.884 13.0001 175.001C13.1164 175.116 13.2086 175.255 13.2716 175.406C13.3345 175.558 13.367 175.722 13.367 175.886C13.367 176.051 13.3345 176.213 13.2716 176.365C13.2086 176.517 13.1164 176.655 13.0001 176.772L8.4566 181.317L13.0001 185.861C13.235 186.096 13.367 186.415 13.367 186.747C13.367 187.079 13.235 187.398 13.0001 187.633C12.7652 187.867 12.4466 188 12.1145 188C11.7822 188 11.4637 187.867 11.2288 187.633L6.68366 183.09L2.13849 187.633C1.90361 187.867 1.58503 188 1.25285 188C0.920673 188 0.602099 187.867 0.367213 187.633C0.132328 187.398 0.000369716 187.079 0.000369716 186.747C0.000369716 186.415 0.132328 186.096 0.367213 185.861L4.91071 181.317L0.367213 176.772C0.250803 176.655 0.158453 176.517 0.0954427 176.365C0.0324328 176.213 0 176.051 0 175.886C0 175.721 0.0324328 175.558 0.0954427 175.406C0.158453 175.254 0.250803 175.116 0.367213 175.001Z" fill="#B3B3B3"/>
<path d="M35.2937 175.001C35.41 174.884 35.5481 174.791 35.7 174.728C35.852 174.665 36.0148 174.633 36.1793 174.633C36.3438 174.633 36.5067 174.665 36.6587 174.728C36.8107 174.791 36.9488 174.884 37.065 175.001L41.6102 179.543L46.1553 175.001C46.2716 174.884 46.4097 174.791 46.5617 174.729C46.7136 174.665 46.8765 174.633 47.041 174.633C47.2055 174.633 47.3684 174.665 47.5202 174.729C47.6722 174.791 47.8103 174.884 47.9266 175.001C48.043 175.116 48.1351 175.255 48.1981 175.406C48.261 175.558 48.2935 175.722 48.2935 175.886C48.2935 176.051 48.261 176.213 48.1981 176.365C48.1351 176.517 48.043 176.655 47.9266 176.772L43.3832 181.317L47.9266 185.861C48.1615 186.096 48.2935 186.415 48.2935 186.747C48.2935 187.079 48.1615 187.398 47.9266 187.633C47.6918 187.867 47.3731 188 47.041 188C46.7087 188 46.3902 187.867 46.1553 187.633L41.6102 183.09L37.065 187.633C36.8301 187.867 36.5116 188 36.1793 188C35.8472 188 35.5286 187.867 35.2937 187.633C35.0589 187.398 34.9268 187.079 34.9268 186.747C34.9268 186.415 35.0589 186.096 35.2937 185.861L39.8373 181.317L35.2937 176.772C35.1774 176.655 35.085 176.517 35.0219 176.365C34.959 176.213 34.9265 176.051 34.9265 175.886C34.9265 175.721 34.959 175.558 35.0219 175.406C35.085 175.254 35.1774 175.116 35.2937 175.001Z" fill="#B3B3B3"/>
<path d="M70.2204 175.001C70.3366 174.884 70.4747 174.791 70.6267 174.728C70.7786 174.665 70.9416 174.633 71.1061 174.633C71.2706 174.633 71.4335 174.665 71.5855 174.728C71.7374 174.791 71.8755 174.884 71.9917 175.001L76.5369 179.543L81.0821 175.001C81.1984 174.884 81.3365 174.791 81.4884 174.729C81.6404 174.665 81.8032 174.633 81.9676 174.633C82.1321 174.633 82.295 174.665 82.447 174.729C82.5989 174.791 82.737 174.884 82.8533 175.001C82.9696 175.116 83.0619 175.255 83.1248 175.406C83.1878 175.558 83.2201 175.722 83.2201 175.886C83.2201 176.051 83.1878 176.213 83.1248 176.365C83.0619 176.517 82.9696 176.655 82.8533 176.772L78.3098 181.317L82.8533 185.861C83.0882 186.096 83.2201 186.415 83.2201 186.747C83.2201 187.079 83.0882 187.398 82.8533 187.633C82.6184 187.867 82.2999 188 81.9676 188C81.6355 188 81.317 187.867 81.0821 187.633L76.5369 183.09L71.9917 187.633C71.7568 187.867 71.4382 188 71.1061 188C70.7739 188 70.4553 187.867 70.2204 187.633C69.9855 187.398 69.8536 187.079 69.8536 186.747C69.8536 186.415 69.9855 186.096 70.2204 185.861L74.7639 181.317L70.2204 176.772C70.104 176.655 70.0116 176.517 69.9487 176.365C69.8856 176.213 69.8533 176.051 69.8533 175.886C69.8533 175.721 69.8856 175.558 69.9487 175.406C70.0116 175.254 70.104 175.116 70.2204 175.001Z" fill="#B3B3B3"/>
<path d="M105.147 175.001C105.263 174.884 105.401 174.791 105.553 174.728C105.705 174.665 105.868 174.633 106.033 174.633C106.197 174.633 106.36 174.665 106.512 174.728C106.664 174.791 106.802 174.884 106.918 175.001L111.463 179.543L116.008 175.001C116.125 174.884 116.263 174.791 116.415 174.729C116.567 174.665 116.729 174.633 116.894 174.633C117.059 174.633 117.222 174.665 117.374 174.729C117.526 174.791 117.664 174.884 117.78 175.001C117.896 175.116 117.988 175.255 118.051 175.406C118.115 175.558 118.147 175.722 118.147 175.886C118.147 176.051 118.115 176.213 118.051 176.365C117.988 176.517 117.896 176.655 117.78 176.772L113.237 181.317L117.78 185.861C118.014 186.096 118.147 186.415 118.147 186.747C118.147 187.079 118.014 187.398 117.78 187.633C117.545 187.867 117.226 188 116.894 188C116.562 188 116.243 187.867 116.008 187.633L111.463 183.09L106.918 187.633C106.683 187.867 106.365 188 106.033 188C105.7 188 105.382 187.867 105.147 187.633C104.912 187.398 104.78 187.079 104.78 186.747C104.78 186.415 104.912 186.096 105.147 185.861L109.69 181.317L105.147 176.772C105.031 176.655 104.938 176.517 104.875 176.365C104.812 176.213 104.78 176.051 104.78 175.886C104.78 175.721 104.812 175.558 104.875 175.406C104.938 175.254 105.031 175.116 105.147 175.001Z" fill="#B3B3B3"/>
<path d="M140.074 175.001C140.189 174.884 140.327 174.791 140.479 174.728C140.631 174.665 140.795 174.633 140.959 174.633C141.124 174.633 141.287 174.665 141.439 174.728C141.591 174.791 141.729 174.884 141.845 175.001L146.39 179.543L150.935 175.001C151.051 174.884 151.189 174.791 151.341 174.729C151.493 174.665 151.656 174.633 151.821 174.633C151.986 174.633 152.149 174.665 152.301 174.729C152.453 174.791 152.591 174.884 152.707 175.001C152.822 175.116 152.915 175.255 152.978 175.406C153.041 175.558 153.074 175.722 153.074 175.886C153.074 176.051 153.041 176.213 152.978 176.365C152.915 176.517 152.822 176.655 152.707 176.772L148.163 181.317L152.707 185.861C152.941 186.096 153.074 186.415 153.074 186.747C153.074 187.079 152.941 187.398 152.707 187.633C152.472 187.867 152.153 188 151.821 188C151.489 188 151.17 187.867 150.935 187.633L146.39 183.09L141.845 187.633C141.61 187.867 141.291 188 140.959 188C140.627 188 140.308 187.867 140.074 187.633C139.839 187.398 139.707 187.079 139.707 186.747C139.707 186.415 139.839 186.096 140.074 185.861L144.617 181.317L140.074 176.772C139.958 176.655 139.865 176.517 139.801 176.365C139.739 176.213 139.707 176.051 139.707 175.886C139.707 175.721 139.739 175.558 139.801 175.406C139.865 175.254 139.958 175.116 140.074 175.001Z" fill="#B3B3B3"/>
<path d="M175.001 175.001C175.116 174.884 175.254 174.791 175.406 174.728C175.558 174.665 175.722 174.633 175.886 174.633C176.051 174.633 176.213 174.665 176.365 174.728C176.517 174.791 176.655 174.884 176.772 175.001L181.317 179.543L185.861 175.001C185.978 174.884 186.116 174.791 186.268 174.729C186.42 174.665 186.582 174.633 186.747 174.633C186.912 174.633 187.075 174.665 187.227 174.729C187.379 174.791 187.517 174.884 187.634 175.001C187.749 175.116 187.842 175.255 187.904 175.406C187.968 175.558 188 175.722 188 175.886C188 176.051 187.968 176.213 187.904 176.365C187.842 176.517 187.749 176.655 187.634 176.772L183.09 181.317L187.634 185.861C187.867 186.096 188 186.415 188 186.747C188 187.079 187.867 187.398 187.634 187.633C187.399 187.867 187.079 188 186.747 188C186.415 188 186.096 187.867 185.861 187.633L181.317 183.09L176.772 187.633C176.537 187.867 176.218 188 175.886 188C175.554 188 175.235 187.867 175.001 187.633C174.766 187.398 174.633 187.079 174.633 186.747C174.633 186.415 174.766 186.096 175.001 185.861L179.543 181.317L175.001 176.772C174.884 176.655 174.792 176.517 174.728 176.365C174.665 176.213 174.633 176.051 174.633 175.886C174.633 175.721 174.665 175.558 174.728 175.406C174.792 175.254 174.884 175.116 175.001 175.001Z" fill="#B3B3B3"/>
</g>
<defs>
<clipPath id="clip0_343_52">
<rect width="188" height="188" fill="white"/>
</clipPath>
</defs>
</svg>
